<svg width="151" height="150" viewBox="0 0 151 150" fill="none" xmlns="http://www.w3.org/2000/svg">
<path d="M6.49854 12.6923C9.96894 12.6923 12.7821 9.85104 12.7821 6.34615C12.7821 2.84127 9.96894 0 6.49854 0C3.02813 0 0.214722 2.84127 0.214722 6.34615C0.214722 9.85104 3.02813 12.6923 6.49854 12.6923Z" fill="#FCCD18"/>
<path d="M33.9664 12.6923C37.4368 12.6923 40.2502 9.85104 40.2502 6.34615C40.2502 2.84127 37.4368 0 33.9664 0C30.4959 0 27.6828 2.84127 27.6828 6.34615C27.6828 9.85104 30.4959 12.6923 33.9664 12.6923Z" fill="#FCCD18"/>
<path d="M61.4333 12.6923C64.9037 12.6923 67.7169 9.85104 67.7169 6.34615C67.7169 2.84127 64.9037 0 61.4333 0C57.9629 0 55.1495 2.84127 55.1495 6.34615C55.1495 9.85104 57.9629 12.6923 61.4333 12.6923Z" fill="#FCCD18"/>
<path d="M88.9483 12.6923C92.4187 12.6923 95.2321 9.85104 95.2321 6.34615C95.2321 2.84127 92.4187 0 88.9483 0C85.4779 0 82.6647 2.84127 82.6647 6.34615C82.6647 9.85104 85.4779 12.6923 88.9483 12.6923Z" fill="#FCCD18"/>
<path d="M116.417 12.6923C119.887 12.6923 122.7 9.85104 122.7 6.34615C122.7 2.84127 119.887 0 116.417 0C112.946 0 110.133 2.84127 110.133 6.34615C110.133 9.85104 112.946 12.6923 116.417 12.6923Z" fill="#FCCD18"/>
<path d="M143.931 12.6923C147.401 12.6923 150.215 9.85104 150.215 6.34615C150.215 2.84127 147.401 0 143.931 0C140.46 0 137.647 2.84127 137.647 6.34615C137.647 9.85104 140.46 12.6923 143.931 12.6923Z" fill="#FCCD18"/>
<path d="M6.49854 35.5771C9.96894 35.5771 12.7821 32.7358 12.7821 29.2309C12.7821 25.726 9.96894 22.8848 6.49854 22.8848C3.02813 22.8848 0.214722 25.726 0.214722 29.2309C0.214722 32.7358 3.02813 35.5771 6.49854 35.5771Z" fill="#FCCD18"/>
<path d="M33.9664 35.5771C37.4368 35.5771 40.2502 32.7358 40.2502 29.2309C40.2502 25.726 37.4368 22.8848 33.9664 22.8848C30.4959 22.8848 27.6828 25.726 27.6828 29.2309C27.6828 32.7358 30.4959 35.5771 33.9664 35.5771Z" fill="#FCCD18"/>
<path d="M61.4333 35.5771C64.9037 35.5771 67.7169 32.7358 67.7169 29.2309C67.7169 25.726 64.9037 22.8848 61.4333 22.8848C57.9629 22.8848 55.1495 25.726 55.1495 29.2309C55.1495 32.7358 57.9629 35.5771 61.4333 35.5771Z" fill="#FCCD18"/>
<path d="M88.9483 35.5771C92.4187 35.5771 95.2321 32.7358 95.2321 29.2309C95.2321 25.726 92.4187 22.8848 88.9483 22.8848C85.4779 22.8848 82.6647 25.726 82.6647 29.2309C82.6647 32.7358 85.4779 35.5771 88.9483 35.5771Z" fill="#FCCD18"/>
<path d="M116.417 35.5771C119.887 35.5771 122.7 32.7358 122.7 29.2309C122.7 25.726 119.887 22.8848 116.417 22.8848C112.946 22.8848 110.133 25.726 110.133 29.2309C110.133 32.7358 112.946 35.5771 116.417 35.5771Z" fill="#FCCD18"/>
<path d="M143.931 35.5771C147.401 35.5771 150.215 32.7358 150.215 29.2309C150.215 25.726 147.401 22.8848 143.931 22.8848C140.46 22.8848 137.647 25.726 137.647 29.2309C137.647 32.7358 140.46 35.5771 143.931 35.5771Z" fill="#FCCD18"/>
<path d="M6.49854 58.4614C9.96894 58.4614 12.7821 55.6201 12.7821 52.1152C12.7821 48.6103 9.96894 45.769 6.49854 45.769C3.02813 45.769 0.214722 48.6103 0.214722 52.1152C0.214722 55.6201 3.02813 58.4614 6.49854 58.4614Z" fill="#FCCD18"/>
<path d="M33.9664 58.4614C37.4368 58.4614 40.2502 55.6201 40.2502 52.1152C40.2502 48.6103 37.4368 45.769 33.9664 45.769C30.4959 45.769 27.6828 48.6103 27.6828 52.1152C27.6828 55.6201 30.4959 58.4614 33.9664 58.4614Z" fill="#FCCD18"/>
<path d="M61.4333 58.4614C64.9037 58.4614 67.7169 55.6201 67.7169 52.1152C67.7169 48.6103 64.9037 45.769 61.4333 45.769C57.9629 45.769 55.1495 48.6103 55.1495 52.1152C55.1495 55.6201 57.9629 58.4614 61.4333 58.4614Z" fill="#FCCD18"/>
<path d="M88.9483 58.4614C92.4187 58.4614 95.2321 55.6201 95.2321 52.1152C95.2321 48.6103 92.4187 45.769 88.9483 45.769C85.4779 45.769 82.6647 48.6103 82.6647 52.1152C82.6647 55.6201 85.4779 58.4614 88.9483 58.4614Z" fill="#FCCD18"/>
<path d="M116.417 58.4614C119.887 58.4614 122.7 55.6201 122.7 52.1152C122.7 48.6103 119.887 45.769 116.417 45.769C112.946 45.769 110.133 48.6103 110.133 52.1152C110.133 55.6201 112.946 58.4614 116.417 58.4614Z" fill="#FCCD18"/>
<path d="M143.931 58.4614C147.401 58.4614 150.215 55.6201 150.215 52.1152C150.215 48.6103 147.401 45.769 143.931 45.769C140.46 45.769 137.647 48.6103 137.647 52.1152C137.647 55.6201 140.46 58.4614 143.931 58.4614Z" fill="#FCCD18"/>
<path d="M6.49854 81.3461C9.96894 81.3461 12.7821 78.5048 12.7821 75C12.7821 71.4951 9.96894 68.6538 6.49854 68.6538C3.02813 68.6538 0.214722 71.4951 0.214722 75C0.214722 78.5048 3.02813 81.3461 6.49854 81.3461Z" fill="#FCCD18"/>
<path d="M33.9664 81.3461C37.4368 81.3461 40.2502 78.5048 40.2502 75C40.2502 71.4951 37.4368 68.6538 33.9664 68.6538C30.4959 68.6538 27.6828 71.4951 27.6828 75C27.6828 78.5048 30.4959 81.3461 33.9664 81.3461Z" fill="#FCCD18"/>
<path d="M61.4333 81.3461C64.9037 81.3461 67.7169 78.5048 67.7169 75C67.7169 71.4951 64.9037 68.6538 61.4333 68.6538C57.9629 68.6538 55.1495 71.4951 55.1495 75C55.1495 78.5048 57.9629 81.3461 61.4333 81.3461Z" fill="#FCCD18"/>
<path d="M88.9483 81.3461C92.4187 81.3461 95.2321 78.5048 95.2321 75C95.2321 71.4951 92.4187 68.6538 88.9483 68.6538C85.4779 68.6538 82.6647 71.4951 82.6647 75C82.6647 78.5048 85.4779 81.3461 88.9483 81.3461Z" fill="#FCCD18"/>
<path d="M116.417 81.3461C119.887 81.3461 122.7 78.5048 122.7 75C122.7 71.4951 119.887 68.6538 116.417 68.6538C112.946 68.6538 110.133 71.4951 110.133 75C110.133 78.5048 112.946 81.3461 116.417 81.3461Z" fill="#FCCD18"/>
<path d="M143.931 81.3461C147.401 81.3461 150.215 78.5048 150.215 75C150.215 71.4951 147.401 68.6538 143.931 68.6538C140.46 68.6538 137.647 71.4951 137.647 75C137.647 78.5048 140.46 81.3461 143.931 81.3461Z" fill="#FCCD18"/>
<path d="M6.49854 104.231C9.96894 104.231 12.7821 101.39 12.7821 97.8847C12.7821 94.3798 9.96894 91.5386 6.49854 91.5386C3.02813 91.5386 0.214722 94.3798 0.214722 97.8847C0.214722 101.39 3.02813 104.231 6.49854 104.231Z" fill="#FCCD18"/>
<path d="M33.9664 104.231C37.4368 104.231 40.2502 101.39 40.2502 97.8847C40.2502 94.3798 37.4368 91.5386 33.9664 91.5386C30.4959 91.5386 27.6828 94.3798 27.6828 97.8847C27.6828 101.39 30.4959 104.231 33.9664 104.231Z" fill="#FCCD18"/>
<path d="M61.4333 104.231C64.9037 104.231 67.7169 101.39 67.7169 97.8847C67.7169 94.3798 64.9037 91.5386 61.4333 91.5386C57.9629 91.5386 55.1495 94.3798 55.1495 97.8847C55.1495 101.39 57.9629 104.231 61.4333 104.231Z" fill="#FCCD18"/>
<path d="M88.9483 104.231C92.4187 104.231 95.2321 101.39 95.2321 97.8847C95.2321 94.3798 92.4187 91.5386 88.9483 91.5386C85.4779 91.5386 82.6647 94.3798 82.6647 97.8847C82.6647 101.39 85.4779 104.231 88.9483 104.231Z" fill="#FCCD18"/>
<path d="M116.417 104.231C119.887 104.231 122.7 101.39 122.7 97.8847C122.7 94.3798 119.887 91.5386 116.417 91.5386C112.946 91.5386 110.133 94.3798 110.133 97.8847C110.133 101.39 112.946 104.231 116.417 104.231Z" fill="#FCCD18"/>
<path d="M143.931 104.231C147.401 104.231 150.215 101.39 150.215 97.8847C150.215 94.3798 147.401 91.5386 143.931 91.5386C140.46 91.5386 137.647 94.3798 137.647 97.8847C137.647 101.39 140.46 104.231 143.931 104.231Z" fill="#FCCD18"/>
<path d="M6.49854 127.115C9.96894 127.115 12.7821 124.274 12.7821 120.769C12.7821 117.264 9.96894 114.423 6.49854 114.423C3.02813 114.423 0.214722 117.264 0.214722 120.769C0.214722 124.274 3.02813 127.115 6.49854 127.115Z" fill="#FCCD18"/>
<path d="M33.9664 127.115C37.4368 127.115 40.2502 124.274 40.2502 120.769C40.2502 117.264 37.4368 114.423 33.9664 114.423C30.4959 114.423 27.6828 117.264 27.6828 120.769C27.6828 124.274 30.4959 127.115 33.9664 127.115Z" fill="#FCCD18"/>
<path d="M61.4333 127.115C64.9037 127.115 67.7169 124.274 67.7169 120.769C67.7169 117.264 64.9037 114.423 61.4333 114.423C57.9629 114.423 55.1495 117.264 55.1495 120.769C55.1495 124.274 57.9629 127.115 61.4333 127.115Z" fill="#FCCD18"/>
<path d="M88.9483 127.115C92.4187 127.115 95.2321 124.274 95.2321 120.769C95.2321 117.264 92.4187 114.423 88.9483 114.423C85.4779 114.423 82.6647 117.264 82.6647 120.769C82.6647 124.274 85.4779 127.115 88.9483 127.115Z" fill="#FCCD18"/>
<path d="M116.417 127.115C119.887 127.115 122.7 124.274 122.7 120.769C122.7 117.264 119.887 114.423 116.417 114.423C112.946 114.423 110.133 117.264 110.133 120.769C110.133 124.274 112.946 127.115 116.417 127.115Z" fill="#FCCD18"/>
<path d="M143.931 127.115C147.401 127.115 150.215 124.274 150.215 120.769C150.215 117.264 147.401 114.423 143.931 114.423C140.46 114.423 137.647 117.264 137.647 120.769C137.647 124.274 140.46 127.115 143.931 127.115Z" fill="#FCCD18"/>
<path d="M6.49854 150C9.96894 150 12.7821 147.159 12.7821 143.654C12.7821 140.149 9.96894 137.308 6.49854 137.308C3.02813 137.308 0.214722 140.149 0.214722 143.654C0.214722 147.159 3.02813 150 6.49854 150Z" fill="#FCCD18"/>
<path d="M33.9664 150C37.4368 150 40.2502 147.159 40.2502 143.654C40.2502 140.149 37.4368 137.308 33.9664 137.308C30.4959 137.308 27.6828 140.149 27.6828 143.654C27.6828 147.159 30.4959 150 33.9664 150Z" fill="#FCCD18"/>
<path d="M61.4333 150C64.9037 150 67.7169 147.159 67.7169 143.654C67.7169 140.149 64.9037 137.308 61.4333 137.308C57.9629 137.308 55.1495 140.149 55.1495 143.654C55.1495 147.159 57.9629 150 61.4333 150Z" fill="#FCCD18"/>
<path d="M88.9483 150C92.4187 150 95.2321 147.159 95.2321 143.654C95.2321 140.149 92.4187 137.308 88.9483 137.308C85.4779 137.308 82.6647 140.149 82.6647 143.654C82.6647 147.159 85.4779 150 88.9483 150Z" fill="#FCCD18"/>
<path d="M116.417 150C119.887 150 122.7 147.159 122.7 143.654C122.7 140.149 119.887 137.308 116.417 137.308C112.946 137.308 110.133 140.149 110.133 143.654C110.133 147.159 112.946 150 116.417 150Z" fill="#FCCD18"/>
<path d="M143.931 150C147.401 150 150.215 147.159 150.215 143.654C150.215 140.149 147.401 137.308 143.931 137.308C140.46 137.308 137.647 140.149 137.647 143.654C137.647 147.159 140.46 150 143.931 150Z" fill="#FCCD18"/>
</svg>
