<svg width="102" height="82" viewBox="0 0 102 82" fill="none" xmlns="http://www.w3.org/2000/svg">
<g clip-path="url(#clip0_325_167)">
<path d="M82.6123 42.2877C93.9486 42.2877 101.588 50.3159 101.588 62.2112C101.588 72.9156 92.8078 81.8334 80.9155 81.8334C67.8896 81.8334 58.2646 71.129 58.2646 54.7785C58.2646 17.6149 84.8796 2.74939 101.588 0.962891V17.3134C90.2589 19.394 77.5218 30.9879 76.9514 43.7801C77.5218 43.4861 79.7819 42.2877 82.6123 42.2877ZM24.855 42.2877C36.1768 42.2877 43.8234 50.3159 43.8234 62.2112C43.8234 72.9156 35.0432 81.8334 23.1509 81.8334C10.125 81.8334 0.5 71.129 0.5 54.7785C0.5 17.6149 27.115 2.74939 43.8234 0.962891V17.3134C32.4944 19.394 19.7573 30.9879 19.1868 43.7801C19.7573 43.4861 22.0173 42.2877 24.855 42.2877Z" fill="white" fill-opacity="0.2"/>
</g>
<defs>
<clipPath id="clip0_325_167">
<rect width="101.088" height="80.8705" fill="white" transform="translate(0.5 0.962891)"/>
</clipPath>
</defs>
</svg>
