<svg width="88" height="59" viewBox="0 0 88 59" fill="none" xmlns="http://www.w3.org/2000/svg">
<path d="M43.6919 50.5617C43.6919 48.2278 45.6279 46.4126 47.9159 46.4126C50.2039 46.4126 52.1399 48.3143 52.1399 50.5617C52.1399 52.809 50.2039 54.7107 47.9159 54.7107C45.6279 54.7107 43.6919 52.8955 43.6919 50.5617ZM61.0279 50.5617C61.0279 48.2278 62.9639 46.4126 65.2519 46.4126C67.6279 46.4126 69.4759 48.3143 69.4759 50.5617C69.4759 52.809 67.5399 54.7107 65.2519 54.7107C62.9639 54.7971 61.0279 52.8955 61.0279 50.5617ZM20.8999 50.5617C20.8999 48.2278 22.8359 46.4126 25.1239 46.4126C27.4999 46.4126 29.3479 48.3143 29.3479 50.5617C29.3479 52.809 27.4119 54.7107 25.1239 54.7107C22.7479 54.7971 20.8999 52.8955 20.8999 50.5617ZM3.56395 50.5617C3.56395 48.2278 5.49994 46.4126 7.78794 46.4126C10.1639 46.4126 12.0119 48.3143 12.0119 50.5617C12.0119 52.809 10.0759 54.7107 7.78794 54.7107C5.49994 54.7971 3.56395 52.8955 3.56395 50.5617ZM38.5879 43.2144H34.8919V57.8225H38.5879V43.2144ZM12.0999 57.8225H15.7959V43.2144H12.0999V44.4245C10.8679 43.5602 9.37195 43.0415 7.69994 43.0415C3.47594 43.0415 0.0439453 46.4126 0.0439453 50.5617C0.0439453 54.7971 3.47594 58.0818 7.69994 58.0818C9.37195 58.0818 10.8679 57.5631 12.0999 56.6988V57.8225ZM69.5639 57.8225H73.2599V43.2144H69.5639V44.4245C68.3319 43.5602 66.8359 43.0415 65.1639 43.0415C60.9399 43.0415 57.5079 46.4126 57.5079 50.5617C57.5079 54.7971 60.9399 58.0818 65.1639 58.0818C66.8359 58.0818 68.3319 57.5631 69.5639 56.6988V57.8225ZM74.5799 53.0684C74.6679 56.0073 77.2199 58.0818 81.5319 58.0818C85.0519 58.0818 87.9559 56.6123 87.9559 53.3277C87.9559 50.9938 86.6359 49.6973 83.6439 49.0922L81.2679 48.66C79.7719 48.4007 78.716 48.055 78.716 47.1906C78.716 46.2397 79.7719 45.8076 81.0039 45.8076C82.8519 45.8076 83.6439 46.7584 83.6439 47.7956H87.34C87.1639 44.9432 84.7879 43.0415 81.0039 43.0415C77.1319 43.0415 74.8439 45.1161 74.8439 47.8821C74.8439 51.1667 77.5719 51.7718 79.9479 52.204L81.8839 52.5497C83.2919 52.809 83.908 53.2412 83.908 54.0192C83.908 54.7107 83.2039 55.4886 81.5319 55.4886C79.0679 55.4886 78.3639 54.2785 78.2759 53.1548H74.5799V53.0684ZM29.3479 38.201V44.3381C28.1159 43.4737 26.6199 42.9551 24.9479 42.9551C20.7239 42.9551 17.2919 46.3262 17.2919 50.4752C17.2919 54.7107 20.7239 57.9953 24.9479 57.9953C26.6199 57.9953 28.1159 57.4767 29.3479 56.6123V57.6496H33.0439V38.201H29.3479ZM52.2279 38.201V44.3381C50.9959 43.4737 49.4999 42.9551 47.8279 42.9551C43.6039 42.9551 40.1719 46.3262 40.1719 50.4752C40.1719 54.7107 43.6039 57.9953 47.8279 57.9953C49.4999 57.9953 50.9959 57.4767 52.2279 56.6123V57.6496H55.9239V38.201H52.2279ZM9.54795 33.8791L12.0999 38.201H29.3479L22.4839 26.5319L9.54795 33.8791ZM38.5879 41.8314V38.201H52.2279L37.7079 13.5661L24.7719 20.8269L34.8919 38.201V41.8314H38.5879ZM57.6839 38.201H75.02L52.6679 0.168213L39.7319 7.51546L57.6839 38.201Z" fill="#444444"/>
</svg>
