<svg width="65" height="65" viewBox="0 0 65 65" fill="none" xmlns="http://www.w3.org/2000/svg">
<path d="M59.5541 51.9523C59.0712 55.2841 56.6583 58.1673 53.2797 59.4486C51.6245 60.0886 49.8322 60.2812 48.0392 60.0886C46.3158 59.8966 44.5917 59.3839 42.7994 58.4239C40.3169 57.1414 37.8345 55.1561 34.9387 52.209C39.4897 47.0199 42.247 42.2788 43.2816 38.0517C43.7644 36.0651 43.8333 34.2712 43.6267 32.6053C43.3512 31.0041 42.7305 29.5301 41.7648 28.2489C39.6274 25.3663 36.0422 23.7004 32.0429 23.7004C28.0437 23.7004 24.4584 25.4303 22.321 28.2489C21.3553 29.5301 20.7354 31.0041 20.4592 32.6053C20.1836 34.2712 20.2525 36.1291 20.8043 38.0517C21.8382 42.2788 24.6651 47.0839 29.1472 52.2723C26.3203 55.2201 23.7689 57.206 21.2864 58.4873C19.4941 59.4486 17.77 59.9612 16.0466 60.1526C14.1848 60.3452 12.3918 60.0886 10.8061 59.5126C7.42752 58.2313 5.01461 55.3475 4.53176 52.0163C4.32511 50.4151 4.46288 48.8138 5.15238 47.0199C5.35902 46.3786 5.70412 45.7393 6.04852 44.97C6.53138 43.9454 7.08312 42.8555 7.63417 41.7662L7.70374 41.6388C12.4607 32.0927 17.5634 22.3552 22.8728 12.8743L23.0794 12.489C23.6311 11.529 24.1822 10.5044 24.7346 9.54315C25.2857 8.51788 25.9063 7.55661 26.6647 6.72333C28.1126 5.18543 30.0433 4.3528 32.1807 4.3528C34.3181 4.3528 36.2488 5.18543 37.6967 6.72333C38.4551 7.55661 39.0757 8.51788 39.6274 9.54315C40.1792 10.5044 40.7302 11.529 41.282 12.489L41.4893 12.8743C46.7291 22.4192 51.8318 32.1567 56.5894 41.7028V41.7662C57.1412 42.7915 57.6233 43.9454 58.1751 44.97C58.5202 45.7393 58.8646 46.3786 59.0712 47.0199C59.623 48.6852 59.8296 50.2877 59.5541 51.9523ZM32.0429 48.9412C28.3199 44.5854 25.9063 40.4849 25.079 37.0264C24.7346 35.5525 24.6651 34.2712 24.8724 33.118C25.0101 32.0927 25.4241 31.1954 25.9752 30.4261C27.2853 28.6982 29.4916 27.607 32.0429 27.607C34.5943 27.607 36.8694 28.6329 38.1107 30.4261C38.6617 31.1954 39.0757 32.0927 39.2135 33.118C39.4201 34.2712 39.3512 35.6165 39.0068 37.0264C38.1795 40.4216 35.7659 44.5214 32.0429 48.9412ZM63.1393 45.61C62.7949 44.8414 62.4498 44.0087 62.1054 43.3041C61.5537 42.1515 61.002 41.0616 60.5191 40.0363L60.4502 39.9729C55.6933 30.3628 50.5906 20.6253 45.2123 11.0171L45.0057 10.6318C44.4539 9.6705 43.9022 8.64524 43.3512 7.62061C42.661 6.4667 41.9715 5.25071 40.8687 4.0968C38.6617 1.53427 35.4904 0.125 32.1118 0.125C28.6643 0.125 25.5619 1.53427 23.286 3.96944C22.2521 5.12207 21.4938 6.33934 20.8043 7.49325C20.2525 8.51788 19.7008 9.54315 19.149 10.5044L18.9424 10.8878C13.6337 20.4973 8.46212 30.2354 3.70449 39.8449L3.63561 39.9729C3.15276 40.9976 2.60102 42.0862 2.04928 43.2401C1.70487 43.9454 1.35978 44.714 1.01537 45.5466C0.118537 47.9165 -0.156988 50.1591 0.187418 52.465C0.946489 57.27 4.39399 61.3065 9.15162 63.0997C10.9439 63.805 12.8058 64.125 14.7365 64.125C15.2882 64.125 15.9778 64.061 16.5295 63.9964C18.8046 63.7397 21.1487 63.0364 23.4238 61.8185C26.2514 60.3452 28.9405 58.2313 31.974 55.1561C35.0076 58.2313 37.7656 60.3452 40.5236 61.8185C42.7994 63.0364 45.1434 63.7397 47.4186 63.9964C47.9703 64.061 48.6598 64.125 49.2116 64.125C51.1423 64.125 53.0724 63.805 54.7965 63.0997C59.623 61.3065 63.0016 57.206 63.76 52.465C64.3117 50.2224 64.0355 47.9812 63.1393 45.61Z" fill="#444444"/>
</svg>
