<svg width="66" height="69" viewBox="0 0 66 69" fill="none" xmlns="http://www.w3.org/2000/svg">
<path d="M57.514 56.3251C29.8666 69.5899 12.7083 58.4916 1.72472 51.7508C1.04506 51.3259 -0.110123 51.8501 0.892157 53.0107C4.55133 57.4836 16.5432 68.2646 32.1961 68.2646C47.8598 68.2646 57.1782 59.6483 58.3439 58.1452C59.5017 56.6549 58.6842 55.8327 57.514 56.3251ZM65.2787 52.0021C64.5363 51.0275 60.7641 50.8458 58.3902 51.1398C56.0125 51.4253 52.4437 52.8902 52.754 53.7698C52.9132 54.0993 53.2382 53.9515 54.8716 53.8034C56.5094 53.6387 61.0975 53.0549 62.0536 54.3148C63.0141 55.5835 60.5902 61.627 60.1475 62.6017C59.7198 63.5764 60.3109 63.8277 61.1143 63.1785C61.9067 62.5296 63.3411 60.8491 64.3038 58.471C65.2598 56.0799 65.843 52.7443 65.2787 52.0021Z" fill="#444444"/>
<path fill-rule="evenodd" clip-rule="evenodd" d="M38.9241 29.2584C38.9241 32.7388 39.0114 35.6414 37.2664 38.7323C35.8579 41.2455 33.6269 42.791 31.1342 42.791C27.7314 42.791 25.7497 40.1773 25.7497 36.32C25.7497 28.7053 32.5174 27.3233 38.9241 27.3233V29.2584ZM47.8606 51.0338C47.2747 51.5614 46.4272 51.5993 45.7667 51.2473C42.8253 48.7847 42.3017 47.6413 40.6815 45.2915C35.8206 50.2925 32.3806 51.7876 26.0739 51.7876C18.6206 51.7876 12.8123 47.151 12.8123 37.8654C12.8123 30.6155 16.7137 25.6772 22.2598 23.2649C27.071 21.1286 33.789 20.7517 38.9241 20.1613V19.0052C38.9241 16.8816 39.086 14.3686 37.8522 12.5343C36.7677 10.8882 34.6988 10.2096 32.8789 10.2096C29.5014 10.2096 26.4851 11.9561 25.7497 15.5748C25.6 16.3792 25.0144 17.1708 24.2168 17.2084L15.6166 16.2788C14.8939 16.1151 14.0962 15.5247 14.2956 14.4063C16.2773 3.90204 25.6872 0.735413 34.1127 0.735413C38.4252 0.735413 44.0588 1.89151 47.4615 5.18368C51.7741 9.24208 51.3627 14.6576 51.3627 20.5507V34.4729C51.3627 38.6571 53.0827 40.4915 54.7029 42.7533C55.2761 43.5574 55.4009 44.5252 54.6779 45.128C52.8707 46.6483 49.655 49.4757 47.8853 51.059L47.8606 51.0338Z" fill="#444444"/>
<path d="M57.514 56.3251C29.8666 69.5899 12.7083 58.4916 1.72472 51.7508C1.04506 51.3259 -0.110123 51.8501 0.892157 53.0107C4.55133 57.4836 16.5432 68.2646 32.1961 68.2646C47.8598 68.2646 57.1782 59.6483 58.3439 58.1452C59.5017 56.6549 58.6842 55.8327 57.514 56.3251ZM65.2787 52.0021C64.5363 51.0275 60.7641 50.8458 58.3902 51.1398C56.0125 51.4253 52.4437 52.8902 52.754 53.7698C52.9132 54.0993 53.2382 53.9515 54.8716 53.8034C56.5094 53.6387 61.0975 53.0549 62.0536 54.3148C63.0141 55.5835 60.5902 61.627 60.1475 62.6017C59.7198 63.5764 60.3109 63.8277 61.1143 63.1785C61.9067 62.5296 63.3411 60.8491 64.3038 58.471C65.2598 56.0799 65.843 52.7443 65.2787 52.0021Z" fill="#444444"/>
<path fill-rule="evenodd" clip-rule="evenodd" d="M38.9241 29.2584C38.9241 32.7388 39.0114 35.6414 37.2664 38.7323C35.8579 41.2455 33.6269 42.791 31.1342 42.791C27.7314 42.791 25.7497 40.1773 25.7497 36.32C25.7497 28.7053 32.5174 27.3233 38.9241 27.3233V29.2584ZM47.8606 51.0338C47.2747 51.5614 46.4272 51.5993 45.7667 51.2473C42.8253 48.7847 42.3017 47.6413 40.6815 45.2915C35.8206 50.2925 32.3806 51.7876 26.0739 51.7876C18.6206 51.7876 12.8123 47.151 12.8123 37.8654C12.8123 30.6155 16.7137 25.6772 22.2598 23.2649C27.071 21.1286 33.789 20.7517 38.9241 20.1613V19.0052C38.9241 16.8816 39.086 14.3686 37.8522 12.5343C36.7677 10.8882 34.6988 10.2096 32.8789 10.2096C29.5014 10.2096 26.4851 11.9561 25.7497 15.5748C25.6 16.3792 25.0144 17.1708 24.2168 17.2084L15.6166 16.2788C14.8939 16.1151 14.0962 15.5247 14.2956 14.4063C16.2773 3.90204 25.6872 0.735413 34.1127 0.735413C38.4252 0.735413 44.0588 1.89151 47.4615 5.18368C51.7741 9.24208 51.3627 14.6576 51.3627 20.5507V34.4729C51.3627 38.6571 53.0827 40.4915 54.7029 42.7533C55.2761 43.5574 55.4009 44.5252 54.6779 45.128C52.8707 46.6483 49.655 49.4757 47.8853 51.059L47.8606 51.0338Z" fill="#444444"/>
</svg>
