<svg width="61" height="75" viewBox="0 0 61 75" fill="none" xmlns="http://www.w3.org/2000/svg">
<path d="M58.6206 25.7868C53.7049 28.8235 50.6688 34.0294 50.6688 39.8137C50.6688 46.3211 54.5724 52.25 60.5001 54.7083C59.3435 58.4681 57.6086 61.9387 55.4399 65.1201C52.2592 69.6029 48.9339 74.2304 44.0182 74.2304C39.1025 74.2304 37.6567 71.3382 31.8736 71.3382C26.2351 71.3382 24.211 74.375 19.5845 74.375C14.958 74.375 11.7772 70.1814 8.16277 64.9755C3.39169 57.7451 0.6447 49.3578 0.500122 40.5368C0.500122 26.2206 9.75313 18.5564 19.0061 18.5564C23.9218 18.5564 27.97 21.7377 31.0061 21.7377C33.8977 21.7377 38.5242 18.4118 44.0182 18.4118C49.8013 18.2672 55.2953 21.0147 58.6206 25.7868ZM41.4158 12.3382C43.8736 9.44608 45.1748 5.83088 45.3194 2.07108C45.3194 1.63725 45.3194 1.05882 45.1748 0.625C40.982 1.05882 37.0784 3.08333 34.3314 6.26471C31.8736 9.01225 30.4278 12.4828 30.2833 16.2426C30.2833 16.6765 30.2833 17.1103 30.4278 17.5441C30.717 17.5441 31.1507 17.6887 31.4399 17.6887C35.3435 17.3995 38.958 15.375 41.4158 12.3382Z" fill="#444444"/>
</svg>
