<svg width="67" height="67" viewBox="0 0 67 67" fill="none" xmlns="http://www.w3.org/2000/svg">
<path d="M65.4 33.625C65.4 51.2981 51.0731 65.625 33.4 65.625C15.7269 65.625 1.40002 51.2981 1.40002 33.625C1.40002 15.9519 15.7269 1.625 33.4 1.625C51.0731 1.625 65.4 15.9519 65.4 33.625Z" stroke="#444444" stroke-width="2"/>
<path d="M44.2475 33.625C44.2475 39.6159 39.3909 44.4725 33.4 44.4725C27.4091 44.4725 22.5526 39.6159 22.5526 33.625C22.5526 27.6341 27.4091 22.7775 33.4 22.7775C39.3909 22.7775 44.2475 27.6341 44.2475 33.625Z" stroke="#444444" stroke-width="2"/>
<path d="M55.0949 33.625C55.0949 45.6068 45.3818 55.3199 33.4 55.3199C21.4183 55.3199 11.7051 45.6068 11.7051 33.625C11.7051 21.6432 21.4183 11.9301 33.4 11.9301C45.3818 11.9301 55.0949 21.6432 55.0949 33.625Z" stroke="#444444" stroke-width="2"/>
</svg>
