<svg width="81" height="81" viewBox="0 0 81 81" fill="none" xmlns="http://www.w3.org/2000/svg">
<path d="M40.0443 0.125C17.9556 0.125 0.0439453 18.4866 0.0439453 41.1377C0.0439453 59.2582 11.5053 74.6315 27.3986 80.0545C29.3977 80.4342 30.1316 79.1648 30.1316 78.0816C30.1316 77.1036 30.0945 73.8729 30.0773 70.4459C18.9492 72.9268 16.601 65.6069 16.601 65.6069C14.7814 60.8664 12.1597 59.6059 12.1597 59.6059C8.53047 57.0604 12.4333 57.1127 12.4333 57.1127C16.45 57.402 18.565 61.3391 18.565 61.3391C22.1326 67.609 27.9226 65.7964 30.2052 64.7484C30.5642 62.0977 31.6008 60.2884 32.7448 59.2643C23.8601 58.2272 14.5205 54.7106 14.5205 38.9956C14.5205 34.518 16.083 30.8594 18.6418 27.9873C18.2265 26.9543 16.8574 22.7829 19.0293 17.1337C19.0293 17.1337 22.3883 16.0314 30.0323 21.3377C33.223 20.429 36.6449 19.9732 40.0443 19.9576C43.4437 19.9732 46.8682 20.429 50.0649 21.3377C57.6996 16.0314 61.0539 17.1337 61.0539 17.1337C63.2312 22.7829 61.8614 26.9543 61.4461 27.9873C64.0108 30.8594 65.5628 34.518 65.5628 38.9956C65.5628 54.7479 56.2052 58.2163 47.2981 59.2317C48.7328 60.5044 50.0112 63.0003 50.0112 66.8266C50.0112 72.3142 49.9649 76.7307 49.9649 78.0816C49.9649 79.173 50.6849 80.4518 52.7125 80.0491C68.5972 74.6199 80.0439 59.2521 80.0439 41.1377C80.0439 18.4866 62.1349 0.125 40.0443 0.125ZM15.0254 58.5484C14.9373 58.7522 14.6246 58.8133 14.3398 58.6734C14.0497 58.5396 13.8867 58.2618 13.9808 58.0574C14.0669 57.8476 14.3802 57.7891 14.6697 57.9297C14.9605 58.0635 15.1261 58.344 15.0254 58.5484ZM16.9929 60.3485C16.8022 60.5298 16.4292 60.4456 16.1762 60.159C15.9146 59.8731 15.8656 59.4907 16.059 59.3067C16.2557 59.1254 16.6174 59.2102 16.8797 59.4962C17.1413 59.7855 17.1923 60.1651 16.9929 60.3485ZM18.3428 62.6516C18.0977 62.8262 17.6969 62.6625 17.4492 62.2978C17.2041 61.9331 17.2041 61.4957 17.4545 61.3205C17.7029 61.1453 18.0977 61.3028 18.3487 61.6648C18.5932 62.0356 18.5932 62.473 18.3428 62.6516ZM20.6256 65.319C20.4064 65.5669 19.9394 65.5003 19.5976 65.1621C19.2479 64.8314 19.1505 64.3621 19.3704 64.1142C19.5923 63.8656 20.0619 63.9356 20.4064 64.2711C20.7535 64.6011 20.8594 65.0738 20.6256 65.319ZM23.576 66.2195C23.4793 66.5407 23.0295 66.6867 22.5764 66.5502C22.124 66.4096 21.8279 66.0334 21.9193 65.7087C22.0134 65.3855 22.4652 65.2333 22.9215 65.3793C23.3733 65.5192 23.67 65.8928 23.576 66.2195ZM26.9336 66.6014C26.9449 66.9396 26.5607 67.2201 26.0851 67.2262C25.6069 67.2371 25.22 66.9634 25.2147 66.6306C25.2147 66.289 25.5903 66.0112 26.0685 66.0031C26.5441 65.9936 26.9336 66.2652 26.9336 66.6014ZM30.2321 66.4718C30.2891 66.8018 29.9586 67.1407 29.4863 67.2311C29.0219 67.318 28.592 67.1143 28.5331 66.7869C28.4755 66.4487 28.812 66.1098 29.2756 66.0222C29.7486 65.938 30.1718 66.1363 30.2321 66.4718Z" fill="#444444"/>
</svg>
