<svg width="48" height="49" viewBox="0 0 48 49" fill="none" xmlns="http://www.w3.org/2000/svg">
<rect y="0.375" width="48" height="48" rx="10" fill="#FFFFF4" fill-opacity="0.2"/>
<path d="M24 11.5748C27.4777 11.5748 27.9116 11.5876 29.2761 11.6516C30.6393 11.7156 31.5673 11.9294 32.384 12.2468C33.2288 12.5719 33.9404 13.0123 34.6521 13.7227C35.303 14.3625 35.8066 15.1365 36.128 15.9908C36.4441 16.8062 36.6592 17.7355 36.7232 19.0987C36.7833 20.4631 36.7999 20.8971 36.7999 24.3748C36.7999 27.8526 36.7872 28.2865 36.7232 29.651C36.6592 31.0142 36.4441 31.9422 36.128 32.7588C35.8075 33.6136 35.3038 34.3878 34.6521 35.027C34.0121 35.6776 33.2381 36.1812 32.384 36.5028C31.5686 36.819 30.6393 37.034 29.2761 37.098C27.9116 37.1582 27.4777 37.1748 24 37.1748C20.5222 37.1748 20.0883 37.162 18.7238 37.098C17.3606 37.034 16.4326 36.819 15.616 36.5028C14.7613 36.1822 13.9872 35.6784 13.3478 35.027C12.6968 34.3872 12.1931 33.6132 11.872 32.7588C11.5545 31.9435 11.3408 31.0142 11.2768 29.651C11.2166 28.2865 11.2 27.8526 11.2 24.3748C11.2 20.8971 11.2128 20.4631 11.2768 19.0987C11.3408 17.7342 11.5545 16.8075 11.872 15.9908C12.1923 15.136 12.696 14.3618 13.3478 13.7227C13.9874 13.0714 14.7615 12.5678 15.616 12.2468C16.4326 11.9294 17.3593 11.7156 18.7238 11.6516C20.0883 11.5915 20.5222 11.5748 24 11.5748ZM24 17.9748C22.3026 17.9748 20.6747 18.6491 19.4745 19.8493C18.2742 21.0496 17.6 22.6774 17.6 24.3748C17.6 26.0722 18.2742 27.7001 19.4745 28.9003C20.6747 30.1005 22.3026 30.7748 24 30.7748C25.6973 30.7748 27.3252 30.1005 28.5254 28.9003C29.7257 27.7001 30.4 26.0722 30.4 24.3748C30.4 22.6774 29.7257 21.0496 28.5254 19.8493C27.3252 18.6491 25.6973 17.9748 24 17.9748ZM32.32 17.6548C32.32 17.2305 32.1514 16.8235 31.8513 16.5235C31.5513 16.2234 31.1443 16.0548 30.72 16.0548C30.2956 16.0548 29.8886 16.2234 29.5886 16.5235C29.2885 16.8235 29.12 17.2305 29.12 17.6548C29.12 18.0792 29.2885 18.4861 29.5886 18.7862C29.8886 19.0863 30.2956 19.2548 30.72 19.2548C31.1443 19.2548 31.5513 19.0863 31.8513 18.7862C32.1514 18.4861 32.32 18.0792 32.32 17.6548ZM24 20.5348C25.0184 20.5348 25.9951 20.9394 26.7152 21.6595C27.4354 22.3797 27.84 23.3564 27.84 24.3748C27.84 25.3933 27.4354 26.37 26.7152 27.0901C25.9951 27.8103 25.0184 28.2148 24 28.2148C22.9815 28.2148 22.0048 27.8103 21.2847 27.0901C20.5645 26.37 20.16 25.3933 20.16 24.3748C20.16 23.3564 20.5645 22.3797 21.2847 21.6595C22.0048 20.9394 22.9815 20.5348 24 20.5348Z" fill="#FFFFF4"/>
</svg>
