<svg width="49" height="49" viewBox="0 0 49 49" fill="none" xmlns="http://www.w3.org/2000/svg">
<rect x="0.5" y="0.375" width="48" height="48" rx="10" fill="white" fill-opacity="0.2"/>
<path d="M17.4215 15.4155C17.4212 16.0945 17.1511 16.7455 16.6708 17.2253C16.1905 17.7052 15.5392 17.9746 14.8602 17.9742C14.1813 17.9739 13.5303 17.7039 13.0504 17.2235C12.5706 16.7432 12.3012 16.0919 12.3015 15.413C12.3019 14.734 12.5719 14.083 13.0522 13.6031C13.5326 13.1233 14.1838 12.8539 14.8628 12.8542C15.5417 12.8546 16.1928 13.1246 16.6726 13.605C17.1525 14.0853 17.4219 14.7366 17.4215 15.4155ZM17.4983 19.8699H12.3783V35.8955H17.4983V19.8699ZM25.5879 19.8699H20.4935V35.8955H25.5367V27.4859C25.5367 22.8011 31.6423 22.3659 31.6423 27.4859V35.8955H36.6983V25.7451C36.6983 17.8475 27.6615 18.1419 25.5367 22.0203L25.5879 19.8699Z" fill="#FFFFF4"/>
</svg>
