<svg width="91" height="32" viewBox="0 0 91 32" fill="none" xmlns="http://www.w3.org/2000/svg">
<path d="M4.97229 0.625V8.01286" stroke="#444444" stroke-miterlimit="10" stroke-linecap="round"/>
<path d="M8.6663 4.31891H1.27844" stroke="#444444" stroke-miterlimit="10" stroke-linecap="round"/>
<path d="M16.6375 0.625V8.01286" stroke="#444444" stroke-miterlimit="10" stroke-linecap="round"/>
<path d="M20.3313 4.31891H12.9435" stroke="#444444" stroke-miterlimit="10" stroke-linecap="round"/>
<path d="M28.3025 0.625V8.01286" stroke="#444444" stroke-miterlimit="10" stroke-linecap="round"/>
<path d="M31.9964 4.31891H24.6085" stroke="#444444" stroke-miterlimit="10" stroke-linecap="round"/>
<path d="M39.9675 0.625V8.01286" stroke="#444444" stroke-miterlimit="10" stroke-linecap="round"/>
<path d="M43.6615 4.31891H36.2737" stroke="#444444" stroke-miterlimit="10" stroke-linecap="round"/>
<path d="M51.6326 0.625V8.01286" stroke="#444444" stroke-miterlimit="10" stroke-linecap="round"/>
<path d="M55.3266 4.31891H47.9387" stroke="#444444" stroke-miterlimit="10" stroke-linecap="round"/>
<path d="M63.2977 0.625V8.01286" stroke="#444444" stroke-miterlimit="10" stroke-linecap="round"/>
<path d="M66.9916 4.31891H59.6038" stroke="#444444" stroke-miterlimit="10" stroke-linecap="round"/>
<path d="M74.9626 0.625V8.01286" stroke="#444444" stroke-miterlimit="10" stroke-linecap="round"/>
<path d="M78.6567 4.31891H71.2688" stroke="#444444" stroke-miterlimit="10" stroke-linecap="round"/>
<path d="M86.6277 0.625V8.01286" stroke="#444444" stroke-miterlimit="10" stroke-linecap="round"/>
<path d="M90.3217 4.31891H82.9338" stroke="#444444" stroke-miterlimit="10" stroke-linecap="round"/>
<path d="M4.97229 11.9385V19.3264" stroke="#444444" stroke-miterlimit="10" stroke-linecap="round"/>
<path d="M8.6663 15.6325H1.27844" stroke="#444444" stroke-miterlimit="10" stroke-linecap="round"/>
<path d="M16.6375 11.9385V19.3264" stroke="#444444" stroke-miterlimit="10" stroke-linecap="round"/>
<path d="M20.3313 15.6325H12.9435" stroke="#444444" stroke-miterlimit="10" stroke-linecap="round"/>
<path d="M28.3025 11.9385V19.3264" stroke="#444444" stroke-miterlimit="10" stroke-linecap="round"/>
<path d="M31.9964 15.6325H24.6085" stroke="#444444" stroke-miterlimit="10" stroke-linecap="round"/>
<path d="M39.9675 11.9385V19.3264" stroke="#444444" stroke-miterlimit="10" stroke-linecap="round"/>
<path d="M43.6615 15.6325H36.2737" stroke="#444444" stroke-miterlimit="10" stroke-linecap="round"/>
<path d="M51.6326 11.9385V19.3264" stroke="#444444" stroke-miterlimit="10" stroke-linecap="round"/>
<path d="M55.3266 15.6325H47.9387" stroke="#444444" stroke-miterlimit="10" stroke-linecap="round"/>
<path d="M63.2977 11.9385V19.3264" stroke="#444444" stroke-miterlimit="10" stroke-linecap="round"/>
<path d="M66.9916 15.6325H59.6038" stroke="#444444" stroke-miterlimit="10" stroke-linecap="round"/>
<path d="M74.9626 11.9385V19.3264" stroke="#444444" stroke-miterlimit="10" stroke-linecap="round"/>
<path d="M78.6567 15.6325H71.2688" stroke="#444444" stroke-miterlimit="10" stroke-linecap="round"/>
<path d="M86.6277 11.9385V19.3264" stroke="#444444" stroke-miterlimit="10" stroke-linecap="round"/>
<path d="M90.3217 15.6325H82.9338" stroke="#444444" stroke-miterlimit="10" stroke-linecap="round"/>
<path d="M4.97229 23.2521V30.625" stroke="#444444" stroke-miterlimit="10" stroke-linecap="round"/>
<path d="M8.6663 26.946H1.27844" stroke="#444444" stroke-miterlimit="10" stroke-linecap="round"/>
<path d="M16.6375 23.2521V30.625" stroke="#444444" stroke-miterlimit="10" stroke-linecap="round"/>
<path d="M20.3313 26.946H12.9435" stroke="#444444" stroke-miterlimit="10" stroke-linecap="round"/>
<path d="M28.3025 23.2521V30.625" stroke="#444444" stroke-miterlimit="10" stroke-linecap="round"/>
<path d="M31.9964 26.946H24.6085" stroke="#444444" stroke-miterlimit="10" stroke-linecap="round"/>
<path d="M39.9675 23.2521V30.625" stroke="#444444" stroke-miterlimit="10" stroke-linecap="round"/>
<path d="M43.6615 26.946H36.2737" stroke="#444444" stroke-miterlimit="10" stroke-linecap="round"/>
<path d="M51.6326 23.2521V30.625" stroke="#444444" stroke-miterlimit="10" stroke-linecap="round"/>
<path d="M55.3266 26.946H47.9387" stroke="#444444" stroke-miterlimit="10" stroke-linecap="round"/>
<path d="M63.2977 23.2521V30.625" stroke="#444444" stroke-miterlimit="10" stroke-linecap="round"/>
<path d="M66.9916 26.946H59.6038" stroke="#444444" stroke-miterlimit="10" stroke-linecap="round"/>
<path d="M74.9626 23.2521V30.625" stroke="#444444" stroke-miterlimit="10" stroke-linecap="round"/>
<path d="M78.6567 26.946H71.2688" stroke="#444444" stroke-miterlimit="10" stroke-linecap="round"/>
<path d="M86.6277 23.2521V30.625" stroke="#444444" stroke-miterlimit="10" stroke-linecap="round"/>
<path d="M90.3217 26.946H82.9338" stroke="#444444" stroke-miterlimit="10" stroke-linecap="round"/>
</svg>
