<svg width="92" height="32" viewBox="0 0 92 32" fill="none" xmlns="http://www.w3.org/2000/svg">
<path d="M5.17212 1.00001V8.38786" stroke="#FFFFF4" stroke-miterlimit="10" stroke-linecap="round"/>
<path d="M8.86613 4.69393H1.47827" stroke="#FFFFF4" stroke-miterlimit="10" stroke-linecap="round"/>
<path d="M16.8372 1V8.38786" stroke="#FFFFF4" stroke-miterlimit="10" stroke-linecap="round"/>
<path d="M20.5312 4.69393H13.1433" stroke="#FFFFF4" stroke-miterlimit="10" stroke-linecap="round"/>
<path d="M28.5022 1V8.38786" stroke="#FFFFF4" stroke-miterlimit="10" stroke-linecap="round"/>
<path d="M32.1962 4.69393H24.8083" stroke="#FFFFF4" stroke-miterlimit="10" stroke-linecap="round"/>
<path d="M40.1672 1V8.38786" stroke="#FFFFF4" stroke-miterlimit="10" stroke-linecap="round"/>
<path d="M43.8612 4.69393H36.4734" stroke="#FFFFF4" stroke-miterlimit="10" stroke-linecap="round"/>
<path d="M51.8325 1V8.38786" stroke="#FFFFF4" stroke-miterlimit="10" stroke-linecap="round"/>
<path d="M55.5265 4.69393H48.1387" stroke="#FFFFF4" stroke-miterlimit="10" stroke-linecap="round"/>
<path d="M63.4976 1V8.38786" stroke="#FFFFF4" stroke-miterlimit="10" stroke-linecap="round"/>
<path d="M67.1916 4.69393H59.8037" stroke="#FFFFF4" stroke-miterlimit="10" stroke-linecap="round"/>
<path d="M75.1626 1V8.38786" stroke="#FFFFF4" stroke-miterlimit="10" stroke-linecap="round"/>
<path d="M78.8566 4.69393H71.4688" stroke="#FFFFF4" stroke-miterlimit="10" stroke-linecap="round"/>
<path d="M86.8276 1V8.38786" stroke="#FFFFF4" stroke-miterlimit="10" stroke-linecap="round"/>
<path d="M90.5217 4.69393H83.1338" stroke="#FFFFF4" stroke-miterlimit="10" stroke-linecap="round"/>
<path d="M5.17212 12.3135V19.7014" stroke="#FFFFF4" stroke-miterlimit="10" stroke-linecap="round"/>
<path d="M8.86613 16.0075H1.47827" stroke="#FFFFF4" stroke-miterlimit="10" stroke-linecap="round"/>
<path d="M16.8372 12.3135V19.7014" stroke="#FFFFF4" stroke-miterlimit="10" stroke-linecap="round"/>
<path d="M20.5312 16.0075H13.1433" stroke="#FFFFF4" stroke-miterlimit="10" stroke-linecap="round"/>
<path d="M28.5022 12.3135V19.7014" stroke="#FFFFF4" stroke-miterlimit="10" stroke-linecap="round"/>
<path d="M32.1962 16.0075H24.8083" stroke="#FFFFF4" stroke-miterlimit="10" stroke-linecap="round"/>
<path d="M40.1672 12.3135V19.7014" stroke="#FFFFF4" stroke-miterlimit="10" stroke-linecap="round"/>
<path d="M43.8612 16.0075H36.4734" stroke="#FFFFF4" stroke-miterlimit="10" stroke-linecap="round"/>
<path d="M51.8325 12.3135V19.7014" stroke="#FFFFF4" stroke-miterlimit="10" stroke-linecap="round"/>
<path d="M55.5265 16.0075H48.1387" stroke="#FFFFF4" stroke-miterlimit="10" stroke-linecap="round"/>
<path d="M63.4976 12.3135V19.7014" stroke="#FFFFF4" stroke-miterlimit="10" stroke-linecap="round"/>
<path d="M67.1916 16.0075H59.8037" stroke="#FFFFF4" stroke-miterlimit="10" stroke-linecap="round"/>
<path d="M75.1626 12.3135V19.7014" stroke="#FFFFF4" stroke-miterlimit="10" stroke-linecap="round"/>
<path d="M78.8566 16.0075H71.4688" stroke="#FFFFF4" stroke-miterlimit="10" stroke-linecap="round"/>
<path d="M86.8276 12.3135V19.7014" stroke="#FFFFF4" stroke-miterlimit="10" stroke-linecap="round"/>
<path d="M90.5217 16.0075H83.1338" stroke="#FFFFF4" stroke-miterlimit="10" stroke-linecap="round"/>
<path d="M5.17212 23.6271V31" stroke="#FFFFF4" stroke-miterlimit="10" stroke-linecap="round"/>
<path d="M8.86613 27.321H1.47827" stroke="#FFFFF4" stroke-miterlimit="10" stroke-linecap="round"/>
<path d="M16.8372 23.6271V31" stroke="#FFFFF4" stroke-miterlimit="10" stroke-linecap="round"/>
<path d="M20.5312 27.321H13.1433" stroke="#FFFFF4" stroke-miterlimit="10" stroke-linecap="round"/>
<path d="M28.5022 23.6271V31" stroke="#FFFFF4" stroke-miterlimit="10" stroke-linecap="round"/>
<path d="M32.1962 27.321H24.8083" stroke="#FFFFF4" stroke-miterlimit="10" stroke-linecap="round"/>
<path d="M40.1672 23.6271V31" stroke="#FFFFF4" stroke-miterlimit="10" stroke-linecap="round"/>
<path d="M43.8612 27.321H36.4734" stroke="#FFFFF4" stroke-miterlimit="10" stroke-linecap="round"/>
<path d="M51.8325 23.6271V31" stroke="#FFFFF4" stroke-miterlimit="10" stroke-linecap="round"/>
<path d="M55.5265 27.321H48.1387" stroke="#FFFFF4" stroke-miterlimit="10" stroke-linecap="round"/>
<path d="M63.4976 23.6271V31" stroke="#FFFFF4" stroke-miterlimit="10" stroke-linecap="round"/>
<path d="M67.1916 27.321H59.8037" stroke="#FFFFF4" stroke-miterlimit="10" stroke-linecap="round"/>
<path d="M75.1626 23.6271V31" stroke="#FFFFF4" stroke-miterlimit="10" stroke-linecap="round"/>
<path d="M78.8566 27.321H71.4688" stroke="#FFFFF4" stroke-miterlimit="10" stroke-linecap="round"/>
<path d="M86.8276 23.6271V31" stroke="#FFFFF4" stroke-miterlimit="10" stroke-linecap="round"/>
<path d="M90.5217 27.321H83.1338" stroke="#FFFFF4" stroke-miterlimit="10" stroke-linecap="round"/>
</svg>
