<svg width="223" height="145" viewBox="0 0 223 145" fill="none" xmlns="http://www.w3.org/2000/svg">
<path d="M111.484 118.152C163.435 118.152 205.549 97.7053 205.549 72.4829C205.549 47.2606 163.435 26.8139 111.484 26.8139C59.5336 26.8139 17.4193 47.2606 17.4193 72.4829C17.4193 97.7053 59.5336 118.152 111.484 118.152Z" stroke="#444444" stroke-miterlimit="10"/>
<path d="M138.224 113.492C184.855 96.2344 210.692 63.891 195.933 41.2514C181.174 18.6119 131.407 14.2493 84.776 31.5074C38.1451 48.7655 12.308 81.1089 27.0672 103.748C41.8265 126.388 91.5931 130.751 138.224 113.492Z" stroke="#444444" stroke-miterlimit="10"/>
<path d="M50.7333 83.6189C49.0533 83.6189 47.4433 83.3989 45.9033 82.9589C44.3633 82.4989 43.1233 81.9089 42.1833 81.1889L43.8333 77.5289C44.7333 78.1689 45.7933 78.6989 47.0133 79.1189C48.2533 79.5189 49.5033 79.7189 50.7633 79.7189C51.7233 79.7189 52.4933 79.6289 53.0733 79.4489C53.6733 79.2489 54.1133 78.9789 54.3933 78.6389C54.6733 78.2989 54.8133 77.9089 54.8133 77.4689C54.8133 76.9089 54.5933 76.4689 54.1533 76.1489C53.7133 75.8089 53.1333 75.5389 52.4133 75.3389C51.6933 75.1189 50.8933 74.9189 50.0133 74.7389C49.1533 74.5389 48.2833 74.2989 47.4033 74.0189C46.5433 73.7389 45.7533 73.3789 45.0333 72.9389C44.3133 72.4989 43.7233 71.9189 43.2633 71.1989C42.8233 70.4789 42.6033 69.5589 42.6033 68.4389C42.6033 67.2389 42.9233 66.1489 43.5633 65.1689C44.2233 64.1689 45.2033 63.3789 46.5033 62.7989C47.8233 62.1989 49.4733 61.8989 51.4533 61.8989C52.7733 61.8989 54.0733 62.0589 55.3533 62.3789C56.6333 62.6789 57.7633 63.1389 58.7433 63.7589L57.2433 67.4489C56.2633 66.8889 55.2833 66.4789 54.3033 66.2189C53.3233 65.9389 52.3633 65.7989 51.4233 65.7989C50.4833 65.7989 49.7133 65.9089 49.1133 66.1289C48.5133 66.3489 48.0833 66.6389 47.8233 66.9989C47.5633 67.3389 47.4333 67.7389 47.4333 68.1989C47.4333 68.7389 47.6533 69.1789 48.0933 69.5189C48.5333 69.8389 49.1133 70.0989 49.8333 70.2989C50.5533 70.4989 51.3433 70.6989 52.2033 70.8989C53.0833 71.0989 53.9533 71.3289 54.8133 71.5889C55.6933 71.8489 56.4933 72.1989 57.2133 72.6389C57.9333 73.0789 58.5133 73.6589 58.9533 74.3789C59.4133 75.0989 59.6433 76.0089 59.6433 77.1089C59.6433 78.2889 59.3133 79.3689 58.6533 80.3489C57.9933 81.3289 57.0033 82.1189 55.6833 82.7189C54.3833 83.3189 52.7333 83.6189 50.7333 83.6189ZM69.6741 83.4989C68.3141 83.4989 67.1241 83.1989 66.1041 82.5989C65.0841 81.9989 64.2841 81.0889 63.7041 79.8689C63.1441 78.6289 62.8641 77.0689 62.8641 75.1889C62.8641 73.2889 63.1341 71.7289 63.6741 70.5089C64.2141 69.2889 64.9941 68.3789 66.0141 67.7789C67.0341 67.1789 68.2541 66.8789 69.6741 66.8789C71.1941 66.8789 72.5541 67.2289 73.7541 67.9289C74.9741 68.6089 75.9341 69.5689 76.6341 70.8089C77.3541 72.0489 77.7141 73.5089 77.7141 75.1889C77.7141 76.8889 77.3541 78.3589 76.6341 79.5989C75.9341 80.8389 74.9741 81.7989 73.7541 82.4789C72.5541 83.1589 71.1941 83.4989 69.6741 83.4989ZM60.1341 89.0789V67.1189H64.6041V70.4189L64.5141 75.2189L64.8141 79.9889V89.0789H60.1341ZM68.8641 79.6589C69.6441 79.6589 70.3341 79.4789 70.9341 79.1189C71.5541 78.7589 72.0441 78.2489 72.4041 77.5889C72.7841 76.9089 72.9741 76.1089 72.9741 75.1889C72.9741 74.2489 72.7841 73.4489 72.4041 72.7889C72.0441 72.1289 71.5541 71.6189 70.9341 71.2589C70.3341 70.8989 69.6441 70.7189 68.8641 70.7189C68.0841 70.7189 67.3841 70.8989 66.7641 71.2589C66.1441 71.6189 65.6541 72.1289 65.2941 72.7889C64.9341 73.4489 64.7541 74.2489 64.7541 75.1889C64.7541 76.1089 64.9341 76.9089 65.2941 77.5889C65.6541 78.2489 66.1441 78.7589 66.7641 79.1189C67.3841 79.4789 68.0841 79.6589 68.8641 79.6589ZM87.9833 83.2589V80.1089L87.6833 79.4189V73.7789C87.6833 72.7789 87.3733 71.9989 86.7533 71.4389C86.1533 70.8789 85.2233 70.5989 83.9633 70.5989C83.1033 70.5989 82.2533 70.7389 81.4133 71.0189C80.5933 71.2789 79.8933 71.6389 79.3133 72.0989L77.6333 68.8289C78.5133 68.2089 79.5733 67.7289 80.8133 67.3889C82.0533 67.0489 83.3133 66.8789 84.5933 66.8789C87.0533 66.8789 88.9633 67.4589 90.3233 68.6189C91.6833 69.7789 92.3633 71.5889 92.3633 74.0489V83.2589H87.9833ZM83.0633 83.4989C81.8033 83.4989 80.7233 83.2889 79.8233 82.8689C78.9233 82.4289 78.2333 81.8389 77.7533 81.0989C77.2733 80.3589 77.0333 79.5289 77.0333 78.6089C77.0333 77.6489 77.2633 76.8089 77.7233 76.0889C78.2033 75.3689 78.9533 74.8089 79.9733 74.4089C80.9933 73.9889 82.3233 73.7789 83.9633 73.7789H88.2533V76.5089H84.4733C83.3733 76.5089 82.6133 76.6889 82.1933 77.0489C81.7933 77.4089 81.5933 77.8589 81.5933 78.3989C81.5933 78.9989 81.8233 79.4789 82.2833 79.8389C82.7633 80.1789 83.4133 80.3489 84.2333 80.3489C85.0133 80.3489 85.7133 80.1689 86.3333 79.8089C86.9533 79.4289 87.4033 78.8789 87.6833 78.1589L88.4033 80.3189C88.0633 81.3589 87.4433 82.1489 86.5433 82.6889C85.6433 83.2289 84.4833 83.4989 83.0633 83.4989ZM102.016 83.4989C100.276 83.4989 98.7262 83.1489 97.3662 82.4489C96.0062 81.7289 94.9362 80.7389 94.1562 79.4789C93.3962 78.2189 93.0162 76.7889 93.0162 75.1889C93.0162 73.5689 93.3962 72.1389 94.1562 70.8989C94.9362 69.6389 96.0062 68.6589 97.3662 67.9589C98.7262 67.2389 100.276 66.8789 102.016 66.8789C103.716 66.8789 105.196 67.2389 106.456 67.9589C107.716 68.6589 108.646 69.6689 109.246 70.9889L105.616 72.9389C105.196 72.1789 104.666 71.6189 104.026 71.2589C103.406 70.8989 102.726 70.7189 101.986 70.7189C101.186 70.7189 100.466 70.8989 99.8262 71.2589C99.1862 71.6189 98.6762 72.1289 98.2962 72.7889C97.9362 73.4489 97.7562 74.2489 97.7562 75.1889C97.7562 76.1289 97.9362 76.9289 98.2962 77.5889C98.6762 78.2489 99.1862 78.7589 99.8262 79.1189C100.466 79.4789 101.186 79.6589 101.986 79.6589C102.726 79.6589 103.406 79.4889 104.026 79.1489C104.666 78.7889 105.196 78.2189 105.616 77.4389L109.246 79.4189C108.646 80.7189 107.716 81.7289 106.456 82.4489C105.196 83.1489 103.716 83.4989 102.016 83.4989ZM117.246 83.4989C115.406 83.4989 113.786 83.1389 112.386 82.4189C111.006 81.6989 109.936 80.7189 109.176 79.4789C108.416 78.2189 108.036 76.7889 108.036 75.1889C108.036 73.5689 108.406 72.1389 109.146 70.8989C109.906 69.6389 110.936 68.6589 112.236 67.9589C113.536 67.2389 115.006 66.8789 116.646 66.8789C118.226 66.8789 119.646 67.2189 120.906 67.8989C122.186 68.5589 123.196 69.5189 123.936 70.7789C124.676 72.0189 125.046 73.5089 125.046 75.2489C125.046 75.4289 125.036 75.6389 125.016 75.8789C124.996 76.0989 124.976 76.3089 124.956 76.5089H111.846V73.7789H122.496L120.696 74.5889C120.696 73.7489 120.526 73.0189 120.186 72.3989C119.846 71.7789 119.376 71.2989 118.776 70.9589C118.176 70.5989 117.476 70.4189 116.676 70.4189C115.876 70.4189 115.166 70.5989 114.546 70.9589C113.946 71.2989 113.476 71.7889 113.136 72.4289C112.796 73.0489 112.626 73.7889 112.626 74.6489V75.3689C112.626 76.2489 112.816 77.0289 113.196 77.7089C113.596 78.3689 114.146 78.8789 114.846 79.2389C115.566 79.5789 116.406 79.7489 117.366 79.7489C118.226 79.7489 118.976 79.6189 119.616 79.3589C120.276 79.0989 120.876 78.7089 121.416 78.1889L123.906 80.8889C123.166 81.7289 122.236 82.3789 121.116 82.8389C119.996 83.2789 118.706 83.4989 117.246 83.4989ZM126.231 83.2589V66.7589C126.231 64.9389 126.771 63.4889 127.851 62.4089C128.931 61.3089 130.471 60.7589 132.471 60.7589C133.151 60.7589 133.801 60.8289 134.421 60.9689C135.061 61.1089 135.601 61.3289 136.041 61.6289L134.811 65.0189C134.551 64.8389 134.261 64.6989 133.941 64.5989C133.621 64.4989 133.281 64.4489 132.921 64.4489C132.241 64.4489 131.711 64.6489 131.331 65.0489C130.971 65.4289 130.791 66.0089 130.791 66.7889V68.2889L130.911 70.2989V83.2589H126.231ZM123.741 71.0789V67.4789H134.931V71.0789H123.741ZM134.88 83.2589V67.1189H139.35V71.6789L138.72 70.3589C139.2 69.2189 139.97 68.3589 141.03 67.7789C142.09 67.1789 143.38 66.8789 144.9 66.8789V71.1989C144.7 71.1789 144.52 71.1689 144.36 71.1689C144.2 71.1489 144.03 71.1389 143.85 71.1389C142.57 71.1389 141.53 71.5089 140.73 72.2489C139.95 72.9689 139.56 74.0989 139.56 75.6389V83.2589H134.88ZM152.11 83.4989C150.77 83.4989 149.57 83.2389 148.51 82.7189C147.47 82.1989 146.66 81.4089 146.08 80.3489C145.5 79.2689 145.21 77.8989 145.21 76.2389V67.1189H149.89V75.5489C149.89 76.8889 150.17 77.8789 150.73 78.5189C151.31 79.1389 152.12 79.4489 153.16 79.4489C153.88 79.4489 154.52 79.2989 155.08 78.9989C155.64 78.6789 156.08 78.1989 156.4 77.5589C156.72 76.8989 156.88 76.0789 156.88 75.0989V67.1189H161.56V83.2589H157.12V78.8189L157.93 80.1089C157.39 81.2289 156.59 82.0789 155.53 82.6589C154.49 83.2189 153.35 83.4989 152.11 83.4989ZM163.396 83.2589V67.1189H168.076V83.2589H163.396ZM165.736 64.8689C164.876 64.8689 164.176 64.6189 163.636 64.1189C163.096 63.6189 162.826 62.9989 162.826 62.2589C162.826 61.5189 163.096 60.8989 163.636 60.3989C164.176 59.8989 164.876 59.6489 165.736 59.6489C166.596 59.6489 167.296 59.8889 167.836 60.3689C168.376 60.8289 168.646 61.4289 168.646 62.1689C168.646 62.9489 168.376 63.5989 167.836 64.1189C167.316 64.6189 166.616 64.8689 165.736 64.8689ZM176.519 83.4989C174.619 83.4989 173.139 83.0189 172.079 82.0589C171.019 81.0789 170.489 79.6289 170.489 77.7089V63.5489H175.169V77.6489C175.169 78.3289 175.349 78.8589 175.709 79.2389C176.069 79.5989 176.559 79.7789 177.179 79.7789C177.919 79.7789 178.549 79.5789 179.069 79.1789L180.329 82.4789C179.849 82.8189 179.269 83.0789 178.589 83.2589C177.929 83.4189 177.239 83.4989 176.519 83.4989ZM167.999 71.0789V67.4789H179.189V71.0789H167.999Z" fill="#444444"/>
<circle cx="47.3433" cy="105.259" r="3" fill="#444444"/>
<circle cx="180.343" cy="28.2589" r="3" fill="#444444"/>
</svg>
