<svg width="81" height="82" viewBox="0 0 81 82" fill="none" xmlns="http://www.w3.org/2000/svg">
<path d="M69.0544 76.0914V81.625H68.3299V76.0914H66.3015V75.4023H71.1035V76.0914H69.0544ZM71.9522 75.4023H73.0285L75.119 80.2677H75.1398L77.251 75.4023H78.3066V81.625H77.5615V76.4046H77.5408L75.326 81.625H74.8914L72.6766 76.4046V81.625H71.9522V75.4023Z" fill="#444444"/>
<path d="M44.9405 18.103C44.5887 18.0403 42.8914 17.748 40.9043 17.748C38.9172 17.748 37.22 18.0403 36.8681 18.103C36.6611 18.1447 36.599 17.9359 36.7439 17.8315C36.8888 17.7271 40.9043 14.6366 40.9043 14.6366L45.0647 17.8315C45.2303 17.9359 45.1475 18.1447 44.9405 18.103ZM38.0065 38.1076C38.0065 38.1076 37.7995 38.1911 37.7374 38.3791C38.5861 39.0264 39.1656 40.509 40.9043 40.509C42.6637 40.509 43.2432 39.0264 44.0712 38.3791C44.0091 38.1911 43.8021 38.1076 43.8021 38.1076C43.8021 38.1076 42.7051 38.3791 40.9043 38.3791C39.1035 38.3791 38.0065 38.1076 38.0065 38.1076ZM40.925 35.6227C40.4282 35.6227 40.3247 35.4347 39.9936 35.4347C39.6831 35.4347 39.0621 35.6853 38.9379 35.915C38.9379 36.0403 39 36.1447 39.0828 36.2282C39.7866 36.3326 40.1178 36.7294 40.9457 36.7294C41.7736 36.7294 42.0841 36.3326 42.8086 36.2282C42.8914 36.1238 42.9328 36.0194 42.9535 35.915C42.8293 35.6853 42.2083 35.4347 41.8978 35.4347C41.5046 35.4347 41.4011 35.6227 40.925 35.6227ZM80.9147 43.2654C80.8733 44.2259 80.7698 45.1865 80.6663 46.1261C76.1333 46.8779 74.5188 42.806 69.8616 43.0148C70.1307 44.0171 70.3584 45.0194 70.5447 46.0635C74.3739 46.0635 75.9263 49.676 80.1902 49.1331C79.9625 50.2398 79.6934 51.3257 79.383 52.4115C76.0091 52.7456 74.8293 49.3628 70.9172 49.4672C70.9586 50.031 70.9586 50.5948 70.9586 51.1586L70.938 52.0983L78.5136 55.0217C78.1204 56.1076 77.665 57.1725 77.1889 58.2166C74.9121 58.0913 74.1255 55.147 70.6689 55.3767C70.5654 56.1285 70.4412 56.8802 70.2756 57.6111C73.2769 57.4022 73.9392 60.2004 76.0919 60.4092C75.533 61.4115 74.9535 62.393 74.3325 63.3535C73.0492 62.6644 71.9522 60.5763 69.5304 60.451C69.7788 59.6784 70.0065 58.8848 70.1721 58.0913C68.0194 58.0913 65.577 57.2561 63.5072 55.3558C64.1695 51.5136 58.2704 47.6087 58.2704 44.8106C58.2704 41.7619 59.8021 40.0705 59.8021 35.9568C59.8021 32.9081 58.3325 29.5879 56.1178 27.3327C55.6831 26.8941 55.2484 26.5391 54.7517 26.2259C56.7801 28.7735 58.3532 31.7804 58.3532 35.2677C58.3532 39.1308 56.5731 41.1772 56.5731 44.748C56.5731 48.3187 61.7478 51.4092 61.7478 55.1053C61.7478 56.5461 61.2924 57.9661 59.7814 60.7433C62.0997 63.0821 65.1423 64.3558 67.088 64.3558C67.7297 64.3558 68.0608 64.1679 68.2885 63.6667C68.4748 63.2282 68.6611 62.7897 68.8474 62.3512C70.9586 62.4347 71.9108 64.3558 73.0906 65.1285C72.4489 65.9846 71.7866 66.8408 71.0828 67.6343C70.2963 66.7572 69.2614 65.2955 67.709 64.8779C67.4399 65.4208 67.1501 65.9428 66.8396 66.4649C68.1643 66.8199 69.0751 68.1772 69.7788 69.0542C69.013 69.8477 68.2264 70.5995 67.4192 71.3303C66.9017 70.5368 66.1152 69.5136 65.2251 68.9498C64.894 69.4092 64.5421 69.8477 64.1902 70.2654C64.9561 70.7874 65.6184 71.7271 66.0531 72.4788C65.1009 73.2514 64.1281 73.9614 63.1139 74.6505C62.6171 70.5368 57.0699 67.7387 58.5602 62.9777C58.0634 63.8129 57.4839 64.857 57.4839 66.1308C57.4839 69.5763 61.1268 72.3118 61.4166 75.7364C60.6715 76.1958 59.8849 76.6134 59.0984 77.031C58.9742 73.2723 55.1035 69.1377 55.1035 66.0473C55.1035 62.6018 59.5744 59.1354 59.5744 55.0635C59.5744 50.9916 54.3998 48.1726 54.3998 44.5809C54.3998 41.0101 56.5938 38.9429 56.5938 34.3698C56.5938 31.0078 55.0207 27.625 52.5783 25.4533C52.1436 25.0774 51.7297 24.7642 51.2122 24.4927C53.5097 27.27 54.8552 29.8176 54.8552 33.6389C54.8552 37.9405 52.3299 40.3419 52.3299 44.56C52.3299 48.7781 57.4011 51.1378 57.4011 55.0635C57.4011 58.9893 52.6818 62.3094 52.6818 66.3605C52.6818 70.0357 56.8422 73.7108 56.9043 78.0751C55.9936 78.4718 55.0621 78.8477 54.1307 79.1818C54.6689 74.7758 49.9703 70.2236 49.9703 66.632C49.9703 62.7062 54.8758 59.3234 54.8758 55.0844C54.8758 50.8454 49.8875 48.8825 49.8875 44.5183C49.8875 40.1749 52.9509 37.7526 52.9509 32.9498C52.9509 29.212 51.1087 25.8292 48.4386 23.741L48.273 23.6157C48.0246 23.4278 47.8176 23.6575 47.9832 23.8872C49.8875 26.2677 50.9017 28.69 50.9017 32.2607C50.9017 36.6668 47.4037 40.2375 47.4037 44.4974C47.4037 49.5299 52.1229 50.9707 52.1229 55.0844C52.1229 59.1981 47.0725 62.4974 47.0725 66.8825C47.0725 70.9336 51.8539 75.444 51.0259 80.1424C50.0738 80.393 49.1009 80.6018 48.1074 80.7897C48.9975 74.9637 44.3196 70.7665 44.3196 66.9452C44.3196 62.8106 49.5563 59.1354 49.5563 55.0844C49.5563 51.2839 45.8099 50.031 45.3131 46.1261C45.251 45.6041 44.8163 45.2074 44.2368 45.2909C43.4709 45.4371 42.4981 45.9382 40.9664 45.9382C39.4347 45.9382 38.4619 45.4371 37.696 45.2909C37.1165 45.1865 36.6818 45.5832 36.6197 46.1261C36.1229 50.031 32.3765 51.263 32.3765 55.0844C32.3765 59.1145 37.6132 62.8106 37.6132 66.9452C37.6132 70.7665 32.9147 74.9637 33.8254 80.7897C32.8319 80.6018 31.859 80.393 30.9069 80.1424C30.079 75.4649 34.8603 70.9544 34.8603 66.8825C34.8603 62.4974 29.8099 59.1981 29.8099 55.0844C29.8099 50.9498 34.5291 49.5299 34.5291 44.4974C34.5291 40.2375 31.0104 36.6668 31.0104 32.2607C31.0104 28.69 32.0246 26.2677 33.9289 23.8872C34.1152 23.6575 33.9082 23.4278 33.6391 23.6157L33.4735 23.741C30.8034 25.8292 28.9612 29.1911 28.9612 32.9498C28.9612 37.7526 32.0246 40.1749 32.0246 44.5183C32.0246 48.8616 27.0363 50.8454 27.0363 55.0844C27.0363 59.3234 31.9418 62.7062 31.9418 66.632C31.9418 70.2236 27.2639 74.7758 27.7814 79.1818C26.8293 78.8477 25.9185 78.4927 25.0078 78.0751C25.0699 73.7108 29.2303 70.0357 29.2303 66.3605C29.2303 62.3094 24.511 59.0101 24.511 55.0635C24.511 51.1169 29.5822 48.7781 29.5822 44.56C29.5822 40.3419 27.057 37.9405 27.057 33.6389C27.057 29.7967 28.3817 27.27 30.6999 24.4927C30.1824 24.7642 29.7685 25.0565 29.3338 25.4533C26.8914 27.625 25.3183 31.0287 25.3183 34.3698C25.3183 38.9429 27.5123 41.0101 27.5123 44.5809C27.5123 48.1517 22.3377 50.9707 22.3377 55.0635C22.3377 59.1354 26.8086 62.6018 26.8086 66.0473C26.8086 69.1377 22.9586 73.2514 22.8138 77.031C22.0272 76.6343 21.2614 76.1958 20.4955 75.7364C20.7853 72.3118 24.4282 69.5763 24.4282 66.1308C24.4282 64.857 23.8487 63.8129 23.3519 62.9777C24.8422 67.7387 19.295 70.5577 18.7982 74.6505C17.784 73.9614 16.8112 73.2514 15.859 72.4788C16.2937 71.7271 16.9561 70.7874 17.7219 70.2654C17.37 69.8477 17.0182 69.4092 16.687 68.9498C15.7969 69.4927 14.9897 70.5159 14.4929 71.3303C13.6857 70.5995 12.8991 69.8477 12.1333 69.0542C12.837 68.1772 13.7478 66.8199 15.0725 66.4649C14.762 65.9428 14.4722 65.4208 14.2031 64.8779C12.6714 65.2955 11.6158 66.7572 10.8293 67.6343C10.1255 66.8199 9.44247 65.9846 8.82151 65.1285C9.98063 64.3558 10.9535 62.4347 13.0647 62.3512C13.251 62.7897 13.4166 63.2282 13.6236 63.6667C13.8513 64.1679 14.1824 64.3558 14.8241 64.3558C16.7698 64.3558 19.8125 63.0821 22.1307 60.7433C20.6197 57.9661 20.1643 56.5461 20.1643 55.1053C20.1643 51.4301 25.339 48.3396 25.339 44.748C25.339 41.1563 23.5589 39.1308 23.5589 35.2677C23.5589 31.7804 25.1113 28.7735 27.1605 26.2259C26.6637 26.5391 26.2083 26.8941 25.7943 27.3327C23.5796 29.5879 22.11 32.9081 22.11 35.9568C22.11 40.0705 23.6417 41.7619 23.6417 44.8106C23.6417 47.6087 17.7426 51.5136 18.405 55.3558C16.3558 57.2561 13.8927 58.0913 11.74 58.0913C11.9263 58.8848 12.154 59.6784 12.3817 60.451C9.95994 60.5763 8.86291 62.6644 7.5796 63.3535C6.95864 62.393 6.35838 61.4115 5.82022 60.4092C7.97287 60.1795 8.61453 57.3814 11.6365 57.6111C11.4709 56.8802 11.3467 56.1285 11.2432 55.3767C7.78658 55.147 7.00004 58.0913 4.7232 58.2166C4.24713 57.1725 3.79176 56.1076 3.39849 55.0217L10.9742 52.0983L10.9535 51.1586C10.9535 50.5948 10.9742 50.031 10.9949 49.4672C7.10353 49.3837 5.90301 52.7456 2.52915 52.4115C2.21867 51.3466 1.94959 50.2398 1.7219 49.1331C5.98581 49.6552 7.5175 46.0426 11.3674 46.0635C11.533 45.0194 11.7607 44.0171 12.0505 43.0148C7.41401 42.806 5.77882 46.8779 1.24583 46.1261C1.12164 45.1865 1.03885 44.2259 0.997452 43.2654C6.27559 43.85 8.24195 39.4858 13.044 40.0287C13.4994 38.8802 14.0169 37.7526 14.6171 36.6668C8.59383 35.6018 6.56537 40.676 0.956055 39.9034C1.47352 18.103 19.1708 0.625 40.925 0.625C62.6792 0.625 80.3558 18.103 80.9561 39.8825C75.3467 40.6552 73.3183 35.5809 67.295 36.6459C67.8953 37.7317 68.4127 38.8384 68.8681 40.0078C73.6702 39.4858 75.6572 43.85 80.9147 43.2654ZM23.7038 26.3095C20.7439 25.0983 17.1837 25.3698 14.141 27.3535C13.665 24.4927 12.1333 21.9452 9.93924 20.4208C9.62876 20.212 9.31828 20.3999 9.33898 20.7549C9.79435 26.8106 6.29629 32.0519 1.99098 36.6668C6.44118 38.0241 10.2083 32.2398 15.9832 34.2654C18.0324 31.154 20.6611 28.4603 23.7038 26.3095ZM40.925 22.6552C37.1993 22.6552 34.0945 24.7851 33.2665 27.5206C33.2044 27.7294 33.2872 27.8756 33.5356 27.7503C34.198 27.4371 34.9638 27.3118 35.7918 27.3118C37.3028 27.3118 38.6482 27.8756 39.4347 28.857C39.7866 30.0264 39.8073 31.6969 39.414 32.6784C38.7931 32.5322 38.5654 32.0519 37.9444 32.0519C37.3235 32.0519 36.8681 32.4904 35.8332 32.4904C34.7982 32.4904 34.674 31.9893 33.991 31.9893C33.1837 31.9893 33.0388 32.8245 33.0388 33.7642C33.0388 37.9405 36.8474 43.7039 40.9043 43.7039C44.9612 43.7039 48.7698 37.9614 48.7698 33.7642C48.7698 32.8245 48.5835 32.031 47.7348 31.9057C47.3209 32.219 46.9276 32.4695 45.9755 32.4695C44.9405 32.4695 44.6507 32.031 44.0505 32.031C43.3053 32.031 43.3881 33.5971 42.5188 33.6807C41.9392 32.2607 41.9185 30.4649 42.3946 28.8361C43.1812 27.8547 44.5266 27.2909 46.0376 27.2909C46.8655 27.2909 47.6313 27.4371 48.2937 27.7294C48.5421 27.8338 48.6249 27.7085 48.5628 27.4997C47.7555 24.7642 44.6301 22.6552 40.925 22.6552ZM46.8448 28.6482C45.9548 28.6482 44.8991 28.9197 44.2575 29.6714C44.1954 29.8802 44.1954 30.1726 44.2782 30.3605C45.8927 29.7967 47.3209 29.7758 48.0039 30.5484C48.3765 30.2143 48.48 29.9011 48.48 29.567C48.48 29.0241 47.9418 28.6482 46.8448 28.6482ZM33.8254 30.5484C34.6119 29.7549 36.2471 29.7967 37.9651 30.4231C38.0479 29.567 36.5162 28.6273 35.0052 28.6273C33.9082 28.6273 33.3493 29.0032 33.3493 29.5461C33.3493 29.922 33.4528 30.2143 33.8254 30.5484ZM59.4709 16.4115C56.5317 16.6204 53.9858 17.6436 51.916 19.335C52.7853 16.8292 53.903 14.6366 55.3105 12.5067C51.5641 12.9034 48.4386 14.2816 46.1617 16.6412L44.3817 11.922L48.3351 8.39298L43.0363 8.01711L40.925 3.04727L38.8138 8.01711L33.5149 8.39298L37.4683 11.922L35.6883 16.6412C33.4114 14.2816 30.2859 12.9034 26.5395 12.5067C27.947 14.6366 29.0647 16.8292 29.9341 19.335C27.8642 17.6436 25.3183 16.6204 22.3791 16.4115C24.1385 18.6876 25.7116 21.1308 26.85 23.741C26.9742 24.0333 27.2639 24.1378 27.5744 23.9707C31.59 21.9452 36.1229 20.8176 40.925 20.8176C45.7271 20.8176 50.2601 21.9452 54.2756 23.9707C54.5861 24.1169 54.8551 24.0333 54.9793 23.741C56.1385 21.1308 57.6909 18.6876 59.4709 16.4115ZM65.8668 34.2654C71.621 32.2607 75.4088 38.0241 79.859 36.6668C75.5537 32.0519 72.035 26.7897 72.511 20.7549C72.5317 20.3999 72.2213 20.1911 71.9108 20.4208C69.7167 21.9452 68.185 24.4927 67.709 27.3535C64.6663 25.3698 61.0854 25.0983 58.1462 26.3095C61.1682 28.4603 63.7969 31.154 65.8668 34.2654Z" fill="#444444"/>
</svg>
