<svg width="49" height="49" viewBox="0 0 49 49" fill="none" xmlns="http://www.w3.org/2000/svg">
<rect x="0.25" y="0.375" width="48" height="48" rx="10" fill="white" fill-opacity="0.2"/>
<path d="M37.2945 16.2863C36.3173 16.7186 35.281 17.0025 34.2199 17.1286C35.3383 16.4597 36.1754 15.407 36.5751 14.1667C35.5255 14.7913 34.3748 15.2291 33.1754 15.4659C32.3698 14.6039 31.302 14.0322 30.1379 13.8397C28.9739 13.6472 27.7789 13.8447 26.7386 14.4015C25.6984 14.9582 24.8713 15.8431 24.3858 16.9184C23.9003 17.9937 23.7837 19.1993 24.0541 20.3478C21.9256 20.2411 19.8434 19.688 17.9425 18.7243C16.0417 17.7607 14.3647 16.408 13.0205 14.7542C12.5448 15.5714 12.2947 16.5004 12.2961 17.446C12.2961 19.302 13.2407 20.9417 14.6769 21.9017C13.827 21.8749 12.9958 21.6454 12.2525 21.2323V21.2988C12.2528 22.5349 12.6805 23.7329 13.4632 24.6896C14.2459 25.6463 15.3354 26.3029 16.5469 26.5481C15.758 26.7619 14.9307 26.7934 14.1277 26.6403C14.4693 27.7042 15.1351 28.6348 16.0319 29.3015C16.9286 29.9683 18.0114 30.3379 19.1287 30.3587C18.0183 31.2308 16.7469 31.8754 15.3871 32.2558C14.0274 32.6362 12.606 32.7449 11.2042 32.5756C13.6512 34.1493 16.4997 34.9847 19.409 34.982C29.2561 34.982 34.641 26.8246 34.641 19.75C34.641 19.5196 34.6346 19.2867 34.6244 19.0588C35.6725 18.3013 36.5772 17.3628 37.2957 16.2876L37.2945 16.2863Z" fill="#FFFFF4"/>
</svg>
