<svg width="48" height="49" viewBox="0 0 48 49" fill="none" xmlns="http://www.w3.org/2000/svg">
<rect y="0.375" width="48" height="48" rx="10" fill="white" fill-opacity="0.2"/>
<path d="M36.2151 17.3323C36.8001 19.6132 36.8001 24.3748 36.8001 24.3748C36.8001 24.3748 36.8001 29.1364 36.2151 31.4174C35.89 32.6782 34.939 33.6702 33.7345 34.0055C31.547 34.6148 24.0001 34.6148 24.0001 34.6148C24.0001 34.6148 16.457 34.6148 14.2657 34.0055C13.0561 33.6651 12.1063 32.6743 11.785 31.4174C11.2001 29.1364 11.2001 24.3748 11.2001 24.3748C11.2001 24.3748 11.2001 19.6132 11.785 17.3323C12.1102 16.0715 13.0612 15.0795 14.2657 14.7441C16.457 14.1348 24.0001 14.1348 24.0001 14.1348C24.0001 14.1348 31.547 14.1348 33.7345 14.7441C34.9441 15.0846 35.8938 16.0753 36.2151 17.3323ZM21.4401 28.8548L29.1201 24.3748L21.4401 19.8948V28.8548Z" fill="#FFFFF4"/>
</svg>
